<?xml version="1.0" standalone="no"?>
<!DOCTYPE svg PUBLIC "-//W3C//DTD SVG 20010904//EN"
 "http://www.w3.org/TR/2001/REC-SVG-20010904/DTD/svg10.dtd">
<svg version="1.0" xmlns="http://www.w3.org/2000/svg"
 width="300.000000pt" height="300.000000pt" viewBox="0 0 300.000000 300.000000"
 preserveAspectRatio="xMidYMid meet">
<metadata>
Created by potrace 1.11, written by Peter Selinger 2001-2013
</metadata>
<g transform="translate(0.000000,300.000000) scale(0.100000,-0.100000)"
fill="#000000" stroke="none">
<path d="M30 2560 l0 -140 450 0 450 0 0 -732 c0 -793 -1 -801 -55 -908 -36
-71 -76 -112 -142 -148 -109 -58 -251 -65 -420 -21 -81 21 -222 82 -272 118
-16 12 -32 21 -35 21 -3 0 -6 -72 -6 -160 l0 -161 73 -34 c173 -82 415 -114
609 -80 276 48 470 225 549 500 l24 80 3 903 3 902 -616 0 -615 0 0 -140z"/>
<path d="M1440 1515 l0 -1186 433 4 c394 4 440 6 518 25 316 76 510 238 585
487 28 92 26 289 -5 374 -41 117 -115 211 -216 276 -55 35 -142 71 -193 81
-31 6 -30 8 58 50 157 77 248 194 280 361 17 84 8 272 -15 338 -45 125 -131
217 -260 280 -165 80 -220 87 -737 92 l-448 5 0 -1187z m874 890 c89 -25 149
-59 193 -109 51 -58 68 -117 67 -231 0 -105 -25 -173 -90 -244 -91 -102 -193
-130 -496 -138 l-218 -6 0 378 0 377 243 -5 c183 -4 256 -9 301 -22z m-14
-1010 c261 -59 390 -225 351 -451 -23 -134 -79 -219 -178 -272 -109 -57 -153
-64 -440 -69 l-263 -5 0 413 0 412 228 -6 c159 -4 249 -10 302 -22z"/>
</g>
</svg>
