<?xml version="1.0" encoding="UTF-8" standalone="no"?>
<!DOCTYPE svg PUBLIC "-//W3C//DTD SVG 1.1//EN" "http://www.w3.org/Graphics/SVG/1.1/DTD/svg11.dtd">
<svg width="100%" height="100%" viewBox="0 0 917 233" version="1.1" xmlns="http://www.w3.org/2000/svg" xmlns:xlink="http://www.w3.org/1999/xlink" xml:space="preserve" xmlns:serif="http://www.serif.com/" style="fill-rule:evenodd;clip-rule:evenodd;stroke-linecap:round;stroke-linejoin:round;stroke-miterlimit:1.5;">
    <g transform="matrix(1,0,0,1,-106.5,-1013.14)">
        <g transform="matrix(1,0,0,1,2.25,-504)">
            <g transform="matrix(1.38889,0,0,1,-187.5,13.392)">
                <path d="M864,1566C864,1536.2 846.578,1512 825.12,1512L254.88,1512C233.422,1512 216,1536.2 216,1566L216,1674C216,1703.8 233.422,1728 254.88,1728L825.12,1728C846.578,1728 864,1703.8 864,1674L864,1566Z" style="fill:none;stroke:black;stroke-width:13.63px;"/>
            </g>
            <g transform="matrix(1,0,0,2.23895,-194.325,-1909.56)">
                <path d="M404.781,1605.03C404.637,1602.15 405.645,1591.78 406.005,1588.32C402.621,1588.25 398.085,1587.96 394.701,1587.39C394.557,1588.76 394.341,1590.7 394.125,1591.92C393.621,1594.44 392.397,1595.16 389.733,1595.16C388.077,1595.16 383.469,1595.02 380.517,1594.95C380.373,1592.14 380.373,1589.4 380.373,1586.74C384.981,1586.67 390.237,1586.6 391.461,1586.74C391.389,1583.79 391.389,1580.76 391.461,1577.88C390.165,1577.95 385.197,1578.03 380.589,1578.1C380.733,1575 380.877,1572.12 381.093,1569.46C383.181,1569.46 385.917,1569.39 389.589,1569.39C392.253,1569.39 393.549,1570.11 393.909,1572.56C394.125,1574.14 394.269,1575.65 394.341,1577.38C397.725,1576.88 401.757,1576.73 405.213,1576.8C404.853,1573.13 403.989,1563.34 403.773,1559.81C396.573,1559.95 390.309,1560.03 379.869,1560.03C372.597,1560.03 365.973,1559.88 360.429,1559.81C360.645,1562.33 360.645,1566.36 360.429,1569.96C361.365,1569.96 362.805,1569.89 364.605,1569.89C367.341,1569.89 368.565,1570.76 368.709,1573.42C368.997,1578.82 368.997,1587.1 368.709,1591.78C368.565,1593.94 367.557,1594.88 364.965,1594.88C364.029,1594.88 361.293,1594.95 360.429,1594.8C360.501,1597.83 360.501,1601.64 360.429,1605.03C367.053,1604.95 374.757,1604.81 382.821,1604.81C390.453,1604.67 398.589,1604.88 404.781,1605.03Z" style="fill-rule:nonzero;"/>
                <path d="M461.733,1595.09L461.301,1595.09C459.501,1595.09 457.557,1594.01 454.677,1591.35C452.301,1589.12 449.349,1586.16 446.685,1583.57C450.501,1579.47 454.245,1575.43 457.053,1572.34C458.997,1570.25 460.149,1569.89 461.589,1569.89L461.949,1569.89C461.733,1566.87 461.733,1563.63 461.949,1559.81C459.429,1559.88 442.869,1559.95 439.917,1559.81C439.989,1561.76 440.133,1567.3 440.205,1569.89L441.717,1569.89C444.597,1569.89 445.605,1571.55 444.021,1573.63C442.581,1575.51 440.565,1577.6 438.549,1579.61C436.533,1577.67 433.437,1574.57 432.501,1573.42C430.917,1571.48 431.637,1569.89 434.445,1569.89C434.949,1569.89 435.885,1569.82 436.461,1569.89C436.101,1566.43 436.245,1563.41 436.461,1559.81C433.941,1559.88 416.013,1560.1 412.773,1559.81C412.989,1561.76 412.989,1567.52 412.773,1569.96L413.205,1569.96C415.149,1569.96 416.157,1570.18 418.389,1572.63C419.541,1573.85 424.077,1578.46 427.605,1581.99C424.293,1585.37 420.693,1589.12 418.173,1591.92C416.085,1594.15 414.429,1595.02 412.701,1595.02L412.053,1595.02C412.413,1598.26 412.269,1601.21 412.053,1605.03C414.717,1604.95 431.061,1604.88 434.013,1605.03C433.941,1603.08 433.941,1597.47 434.013,1595.02L431.493,1595.02C428.973,1595.02 428.469,1593.08 429.909,1591.42C431.853,1589.26 433.509,1587.46 435.381,1585.66C437.829,1587.6 440.853,1590.48 441.933,1591.92C443.157,1593.65 441.861,1595.02 439.773,1595.02L437.757,1595.02C437.973,1598.69 437.973,1601.14 437.757,1605.03C440.205,1604.95 458.709,1604.74 461.733,1605.03C461.517,1603.08 461.517,1597.54 461.733,1595.09Z" style="fill-rule:nonzero;"/>
                <path d="M494.421,1559.81C494.637,1563.05 494.709,1566.15 494.421,1569.53C495.141,1569.46 495.357,1569.46 495.933,1569.46C497.949,1569.46 498.669,1570.32 498.741,1573.13C498.813,1574.43 498.813,1576.08 498.813,1577.95C493.917,1578.03 487.509,1578.03 482.829,1577.88C482.829,1576.08 482.829,1574.43 482.901,1573.13C482.973,1570.32 483.693,1569.46 485.709,1569.46C486.429,1569.46 486.645,1569.46 487.221,1569.53C486.933,1566.15 487.005,1563.05 487.221,1559.81C484.053,1560.1 468.861,1559.95 465.981,1559.81C466.197,1563.05 466.269,1566.15 465.981,1569.53C466.557,1569.46 466.773,1569.46 467.133,1569.46C469.221,1569.46 470.589,1570.11 470.805,1573.13C471.165,1577.74 470.949,1586.67 470.805,1591.85C470.733,1594.23 469.365,1594.95 467.061,1594.95C466.773,1594.95 466.485,1594.95 466.053,1594.88C466.341,1598.26 466.341,1601.64 466.053,1605.03C468.501,1604.88 484.485,1604.81 487.149,1605.03C486.861,1601.64 486.861,1598.26 487.149,1594.88C486.645,1594.95 485.925,1594.95 485.277,1594.95C483.837,1594.95 482.973,1594.3 482.901,1591.85C482.829,1590.56 482.829,1588.97 482.829,1587.32C487.437,1587.24 493.845,1587.24 498.813,1587.32C498.813,1588.97 498.813,1590.56 498.741,1591.85C498.669,1594.3 497.805,1594.95 496.365,1594.95C495.717,1594.95 494.997,1594.95 494.493,1594.88C494.781,1598.26 494.781,1601.64 494.493,1605.03C497.157,1604.81 513.141,1604.88 515.589,1605.03C515.301,1601.64 515.301,1598.26 515.589,1594.88C515.085,1594.95 514.869,1594.95 514.581,1594.95C512.277,1594.95 510.909,1594.23 510.837,1591.85C510.693,1586.67 510.477,1577.74 510.837,1573.13C511.053,1570.11 512.421,1569.46 514.509,1569.46C514.797,1569.46 515.157,1569.46 515.661,1569.53C515.373,1566.15 515.445,1563.05 515.661,1559.81C512.781,1559.95 497.589,1560.1 494.421,1559.81Z" style="fill-rule:nonzero;"/>
                <path d="M562.245,1559.81C557.709,1559.95 530.853,1560.03 525.885,1559.81C526.101,1562.98 526.101,1566.22 525.885,1569.6C527.469,1569.53 530.565,1569.32 534.597,1569.32C537.189,1569.32 537.765,1570.68 537.837,1572.56C538.125,1577.31 537.981,1586.74 537.837,1592.07C537.765,1594.44 536.109,1595.38 533.661,1595.38C529.989,1595.38 527.181,1595.31 525.885,1595.16C526.101,1597.61 526.101,1602.51 525.885,1605.03C530.421,1604.81 557.061,1604.6 562.245,1605.03C562.029,1602.51 562.029,1597.61 562.245,1595.16C560.949,1595.31 558.069,1595.38 554.325,1595.38C551.877,1595.38 550.293,1594.44 550.149,1591.92C549.861,1586.45 549.861,1577.31 550.149,1572.56C550.221,1570.68 550.797,1569.32 553.389,1569.32C557.493,1569.32 560.589,1569.53 562.245,1569.6C562.029,1566.22 562.029,1562.98 562.245,1559.81Z" style="fill-rule:nonzero;"/>
                <path d="M603.789,1559.67C595.725,1559.67 589.173,1560.24 574.557,1559.81C574.773,1562.33 574.773,1566.36 574.557,1569.96C575.277,1569.89 575.925,1569.89 577.941,1569.89C580.029,1569.89 581.325,1570.39 581.397,1573.42C581.541,1578.82 581.613,1586.88 581.397,1591.78C581.325,1593.94 580.749,1594.88 578.013,1594.88C576.429,1594.88 575.421,1594.95 574.557,1594.8C574.629,1597.83 574.629,1601.64 574.557,1605.03C583.629,1604.52 595.365,1605.03 604.005,1605.03C615.453,1605.03 619.269,1600.49 619.269,1593.72C619.269,1586.09 614.445,1583.64 607.749,1582.92L607.749,1582.42C615.885,1581.77 618.621,1577.45 618.621,1571.55C618.621,1563.19 613.221,1559.67 603.789,1559.67ZM602.421,1577.74L593.061,1577.74C593.061,1574.07 593.133,1570.76 593.277,1568.74C595.221,1568.74 599.037,1568.67 602.133,1568.67C604.941,1568.67 607.101,1569.75 607.101,1573.2C607.101,1575.65 606.237,1577.74 602.421,1577.74ZM602.349,1587.24C605.733,1587.24 607.317,1588.32 607.317,1591.35C607.317,1594.59 605.661,1595.74 602.205,1595.74L593.205,1595.74C593.133,1593.72 593.061,1590.63 593.061,1587.24L602.349,1587.24Z" style="fill-rule:nonzero;"/>
                <path d="M668.805,1559.81C664.269,1559.95 637.413,1560.03 632.445,1559.81C632.661,1562.98 632.661,1566.22 632.445,1569.6C634.029,1569.53 637.125,1569.32 641.157,1569.32C643.749,1569.32 644.325,1570.68 644.397,1572.56C644.685,1577.31 644.541,1586.74 644.397,1592.07C644.325,1594.44 642.669,1595.38 640.221,1595.38C636.549,1595.38 633.741,1595.31 632.445,1595.16C632.661,1597.61 632.661,1602.51 632.445,1605.03C636.981,1604.81 663.621,1604.6 668.805,1605.03C668.589,1602.51 668.589,1597.61 668.805,1595.16C667.509,1595.31 664.629,1595.38 660.885,1595.38C658.437,1595.38 656.853,1594.44 656.709,1591.92C656.421,1586.45 656.421,1577.31 656.709,1572.56C656.781,1570.68 657.357,1569.32 659.949,1569.32C664.053,1569.32 667.149,1569.53 668.805,1569.6C668.589,1566.22 668.589,1562.98 668.805,1559.81Z" style="fill-rule:nonzero;"/>
                <path d="M696.309,1569.32L698.469,1569.32C698.685,1576.01 698.397,1586.45 698.181,1591.56C698.109,1593.58 697.677,1595.31 694.581,1595.31C691.269,1595.31 688.173,1595.16 686.877,1595.09C687.093,1598.26 687.093,1601.86 686.877,1605.03C691.125,1604.81 716.469,1604.67 721.077,1605.03C720.861,1601.86 720.861,1598.26 721.077,1595.09C719.781,1595.16 716.613,1595.31 713.229,1595.31C710.061,1595.31 709.629,1593.58 709.557,1591.56C709.341,1586.45 709.269,1576.01 709.485,1569.32L711.645,1569.32C714.165,1569.32 715.605,1569.89 716.181,1572.63C716.901,1576.08 717.693,1579.83 718.125,1583.36C721.509,1582.78 724.965,1582.42 728.493,1581.99C727.413,1577.38 725.325,1564.49 724.605,1559.74C716.613,1560.17 688.461,1560.1 683.349,1559.74C682.629,1564.49 680.541,1577.38 679.461,1581.99C682.989,1582.42 686.445,1582.78 689.829,1583.36C690.261,1579.83 691.053,1576.08 691.773,1572.63C692.349,1569.89 693.789,1569.32 696.309,1569.32Z" style="fill-rule:nonzero;"/>
                <path d="M775.365,1559.81C770.829,1559.95 743.973,1560.03 739.005,1559.81C739.221,1562.98 739.221,1566.22 739.005,1569.6C740.589,1569.53 743.685,1569.32 747.717,1569.32C750.309,1569.32 750.885,1570.68 750.957,1572.56C751.245,1577.31 751.101,1586.74 750.957,1592.07C750.885,1594.44 749.229,1595.38 746.781,1595.38C743.109,1595.38 740.301,1595.31 739.005,1595.16C739.221,1597.61 739.221,1602.51 739.005,1605.03C743.541,1604.81 770.181,1604.6 775.365,1605.03C775.149,1602.51 775.149,1597.61 775.365,1595.16C774.069,1595.31 771.189,1595.38 767.445,1595.38C764.997,1595.38 763.413,1594.44 763.269,1591.92C762.981,1586.45 762.981,1577.31 763.269,1572.56C763.341,1570.68 763.917,1569.32 766.509,1569.32C770.613,1569.32 773.709,1569.53 775.365,1569.6C775.149,1566.22 775.149,1562.98 775.365,1559.81Z" style="fill-rule:nonzero;"/>
                <path d="M787.461,1582.35C787.461,1596.39 794.661,1606.04 810.501,1606.04C826.341,1606.04 833.541,1596.39 833.541,1582.42C833.541,1568.38 826.341,1558.8 810.501,1558.8C794.661,1558.8 787.461,1568.38 787.461,1582.35ZM820.725,1582.49C820.725,1591.28 816.981,1595.31 810.501,1595.31C804.021,1595.31 800.277,1591.28 800.277,1582.49C800.277,1573.71 804.021,1569.6 810.501,1569.6C816.981,1569.6 820.725,1573.71 820.725,1582.49Z" style="fill-rule:nonzero;"/>
                <path d="M884.301,1605.03C883.725,1599.48 883.869,1579.97 884.301,1572.77C884.445,1570.32 884.661,1569.67 886.533,1569.67C886.821,1569.67 887.541,1569.67 887.829,1569.75C887.541,1566.72 887.541,1562.91 887.757,1559.81C885.669,1560.1 870.549,1559.95 867.957,1559.81C868.173,1562.91 868.101,1566.36 867.957,1569.75C869.757,1569.6 870.909,1569.67 872.205,1569.67C874.005,1569.67 874.509,1570.68 874.581,1573.28C874.653,1574.93 874.653,1577.45 874.725,1579.9C874.797,1583.14 874.941,1588.39 875.805,1593.36L875.445,1593.51C874.221,1589.19 872.853,1585.73 869.901,1579.9C865.365,1571.69 862.053,1562.69 861.045,1559.81C858.813,1560.1 843.045,1559.95 840.453,1559.81C840.669,1562.98 840.669,1566.58 840.453,1569.82C841.317,1569.75 841.749,1569.75 842.757,1569.75C844.773,1569.75 845.493,1570.76 845.493,1573.35C845.565,1577.81 845.637,1586.6 845.493,1591.78C845.421,1594.01 844.053,1594.95 842.253,1594.95C841.749,1594.95 841.389,1594.95 840.597,1594.88C840.813,1598.26 840.813,1601.57 840.597,1605.03C843.117,1604.88 858.381,1604.81 861.117,1605.03C860.901,1602.8 860.901,1597.39 861.117,1594.8C860.109,1594.95 859.389,1594.88 858.309,1594.88C856.365,1594.88 855.573,1593.72 855.501,1591.78C855.429,1588.9 855.357,1585.52 855.357,1581.84C855.357,1579.25 854.709,1574.79 854.133,1570.76L854.421,1570.61C856.149,1574.5 858.309,1579.11 860.613,1583.36C865.437,1592.5 870.045,1602.58 870.837,1605.03C874.725,1604.81 880.845,1604.81 884.301,1605.03Z" style="fill-rule:nonzero;"/>
                <path d="M988.485,1559.81C983.949,1559.95 957.093,1560.03 952.125,1559.81C952.341,1562.98 952.341,1566.22 952.125,1569.6C953.709,1569.53 956.805,1569.32 960.837,1569.32C963.429,1569.32 964.005,1570.68 964.077,1572.56C964.365,1577.31 964.221,1586.74 964.077,1592.07C964.005,1594.44 962.349,1595.38 959.901,1595.38C956.229,1595.38 953.421,1595.31 952.125,1595.16C952.341,1597.61 952.341,1602.51 952.125,1605.03C956.661,1604.81 983.301,1604.6 988.485,1605.03C988.269,1602.51 988.269,1597.61 988.485,1595.16C987.189,1595.31 984.309,1595.38 980.565,1595.38C978.117,1595.38 976.533,1594.44 976.389,1591.92C976.101,1586.45 976.101,1577.31 976.389,1572.56C976.461,1570.68 977.037,1569.32 979.629,1569.32C983.733,1569.32 986.829,1569.53 988.485,1569.6C988.269,1566.22 988.269,1562.98 988.485,1559.81Z" style="fill-rule:nonzero;"/>
                <path d="M1044.14,1605.03C1043.57,1599.48 1043.71,1579.97 1044.14,1572.77C1044.29,1570.32 1044.5,1569.67 1046.37,1569.67C1046.66,1569.67 1047.38,1569.67 1047.67,1569.75C1047.38,1566.72 1047.38,1562.91 1047.6,1559.81C1045.51,1560.1 1030.39,1559.95 1027.8,1559.81C1028.01,1562.91 1027.94,1566.36 1027.8,1569.75C1029.6,1569.6 1030.75,1569.67 1032.05,1569.67C1033.85,1569.67 1034.35,1570.68 1034.42,1573.28C1034.49,1574.93 1034.49,1577.45 1034.57,1579.9C1034.64,1583.14 1034.78,1588.39 1035.64,1593.36L1035.29,1593.51C1034.06,1589.19 1032.69,1585.73 1029.74,1579.9C1025.2,1571.69 1021.89,1562.69 1020.88,1559.81C1018.65,1560.1 1002.88,1559.95 1000.29,1559.81C1000.51,1562.98 1000.51,1566.58 1000.29,1569.82C1001.16,1569.75 1001.59,1569.75 1002.6,1569.75C1004.61,1569.75 1005.33,1570.76 1005.33,1573.35C1005.4,1577.81 1005.48,1586.6 1005.33,1591.78C1005.26,1594.01 1003.89,1594.95 1002.09,1594.95C1001.59,1594.95 1001.23,1594.95 1000.44,1594.88C1000.65,1598.26 1000.65,1601.57 1000.44,1605.03C1002.96,1604.88 1018.22,1604.81 1020.96,1605.03C1020.74,1602.8 1020.74,1597.39 1020.96,1594.8C1019.95,1594.95 1019.23,1594.88 1018.15,1594.88C1016.21,1594.88 1015.41,1593.72 1015.34,1591.78C1015.27,1588.9 1015.2,1585.52 1015.2,1581.84C1015.2,1579.25 1014.55,1574.79 1013.97,1570.76L1014.26,1570.61C1015.99,1574.5 1018.15,1579.11 1020.45,1583.36C1025.28,1592.5 1029.88,1602.58 1030.68,1605.03C1034.57,1604.81 1040.68,1604.81 1044.14,1605.03Z" style="fill-rule:nonzero;"/>
                <path d="M1084.53,1605.03C1084.32,1602.51 1084.25,1597.68 1084.53,1594.8C1082.37,1594.88 1080.64,1594.88 1077.26,1594.88C1075.39,1594.88 1074.09,1594.59 1073.95,1591.92C1073.88,1590.99 1073.88,1589.98 1073.81,1588.9C1079.2,1588.9 1085.54,1588.9 1087.05,1589.04C1086.84,1586.6 1086.84,1582.71 1087.05,1579.83C1085.4,1579.97 1079.06,1579.97 1073.66,1579.97C1073.66,1576.23 1073.73,1572.56 1073.88,1569.46C1076.11,1569.46 1079.92,1569.39 1084.32,1569.39C1087.05,1569.39 1088.64,1569.96 1088.85,1572.77C1089,1574.57 1089,1576.59 1089.14,1578.32C1092.45,1578.03 1096.27,1577.95 1099.58,1578.03C1099.15,1574.14 1098.43,1563.63 1098.07,1559.81C1090.65,1559.95 1083.74,1560.03 1072.94,1560.03C1065.96,1560.03 1059.26,1559.88 1053.79,1559.81C1054.01,1562.33 1054.01,1566.36 1053.79,1569.96C1054.58,1569.96 1057.03,1569.89 1058.11,1569.89C1061.06,1569.89 1061.71,1570.54 1061.78,1573.42C1061.92,1578.82 1061.85,1586.95 1061.78,1591.71C1061.78,1593.8 1060.77,1594.88 1058.25,1594.88C1056.02,1594.88 1054.94,1594.95 1053.79,1594.8C1053.86,1597.83 1053.86,1601.64 1053.79,1605.03C1062.64,1604.88 1074.24,1604.88 1084.53,1605.03Z" style="fill-rule:nonzero;"/>
                <path d="M1107.14,1582.35C1107.14,1596.39 1114.34,1606.04 1130.18,1606.04C1146.02,1606.04 1153.22,1596.39 1153.22,1582.42C1153.22,1568.38 1146.02,1558.8 1130.18,1558.8C1114.34,1558.8 1107.14,1568.38 1107.14,1582.35ZM1140.4,1582.49C1140.4,1591.28 1136.66,1595.31 1130.18,1595.31C1123.7,1595.31 1119.96,1591.28 1119.96,1582.49C1119.96,1573.71 1123.7,1569.6 1130.18,1569.6C1136.66,1569.6 1140.4,1573.71 1140.4,1582.49Z" style="fill-rule:nonzero;"/>
            </g>
        </g>
    </g>
</svg>
