<?xml version="1.0" encoding="UTF-8" standalone="no"?>
<!DOCTYPE svg PUBLIC "-//W3C//DTD SVG 1.1//EN" "http://www.w3.org/Graphics/SVG/1.1/DTD/svg11.dtd">
<svg width="100%" height="100%" viewBox="0 0 917 233" version="1.1" xmlns="http://www.w3.org/2000/svg" xmlns:xlink="http://www.w3.org/1999/xlink" xml:space="preserve" xmlns:serif="http://www.serif.com/" style="fill-rule:evenodd;clip-rule:evenodd;stroke-linecap:round;stroke-linejoin:round;stroke-miterlimit:1.5;">
    <g transform="matrix(1,0,0,1,-99.75,-1431.75)">
        <g transform="matrix(1,0,0,1,-4.5,396)">
            <g transform="matrix(1.38889,0,0,1,-187.5,-468)">
                <path d="M864,1566C864,1536.2 846.578,1512 825.12,1512L254.88,1512C233.422,1512 216,1536.2 216,1566L216,1674C216,1703.8 233.422,1728 254.88,1728L825.12,1728C846.578,1728 864,1703.8 864,1674L864,1566Z" style="fill:none;stroke:black;stroke-width:13.63px;"/>
            </g>
            <g transform="matrix(1,0,0,2.15021,-60.5846,-2250.53)">
                <path d="M391.893,1605.03C391.677,1602.51 391.605,1597.68 391.893,1594.8C389.733,1594.88 388.005,1594.88 384.621,1594.88C382.749,1594.88 381.453,1594.59 381.309,1591.92C381.237,1590.99 381.237,1589.98 381.165,1588.9C386.565,1588.9 392.901,1588.9 394.413,1589.04C394.197,1586.6 394.197,1582.71 394.413,1579.83C392.757,1579.97 386.421,1579.97 381.021,1579.97C381.021,1576.23 381.093,1572.56 381.237,1569.46C383.469,1569.46 387.285,1569.39 391.677,1569.39C394.413,1569.39 395.997,1569.96 396.213,1572.77C396.357,1574.57 396.357,1576.59 396.501,1578.32C399.813,1578.03 403.629,1577.95 406.941,1578.03C406.509,1574.14 405.789,1563.63 405.429,1559.81C398.013,1559.95 391.101,1560.03 380.301,1560.03C373.317,1560.03 366.621,1559.88 361.149,1559.81C361.365,1562.33 361.365,1566.36 361.149,1569.96C361.941,1569.96 364.389,1569.89 365.469,1569.89C368.421,1569.89 369.069,1570.54 369.141,1573.42C369.285,1578.82 369.213,1586.95 369.141,1591.71C369.141,1593.8 368.133,1594.88 365.613,1594.88C363.381,1594.88 362.301,1594.95 361.149,1594.8C361.221,1597.83 361.221,1601.64 361.149,1605.03C370.005,1604.88 381.597,1604.88 391.893,1605.03Z" style="fill-rule:nonzero;"/>
                <path d="M455.685,1559.81C451.149,1559.95 424.293,1560.03 419.325,1559.81C419.541,1562.98 419.541,1566.22 419.325,1569.6C420.909,1569.53 424.005,1569.32 428.037,1569.32C430.629,1569.32 431.205,1570.68 431.277,1572.56C431.565,1577.31 431.421,1586.74 431.277,1592.07C431.205,1594.44 429.549,1595.38 427.101,1595.38C423.429,1595.38 420.621,1595.31 419.325,1595.16C419.541,1597.61 419.541,1602.51 419.325,1605.03C423.861,1604.81 450.501,1604.6 455.685,1605.03C455.469,1602.51 455.469,1597.61 455.685,1595.16C454.389,1595.31 451.509,1595.38 447.765,1595.38C445.317,1595.38 443.733,1594.44 443.589,1591.92C443.301,1586.45 443.301,1577.31 443.589,1572.56C443.661,1570.68 444.237,1569.32 446.829,1569.32C450.933,1569.32 454.029,1569.53 455.685,1569.6C455.469,1566.22 455.469,1562.98 455.685,1559.81Z" style="fill-rule:nonzero;"/>
                <path d="M511.341,1605.03C510.765,1599.48 510.909,1579.97 511.341,1572.77C511.485,1570.32 511.701,1569.67 513.573,1569.67C513.861,1569.67 514.581,1569.67 514.869,1569.75C514.581,1566.72 514.581,1562.91 514.797,1559.81C512.709,1560.1 497.589,1559.95 494.997,1559.81C495.213,1562.91 495.141,1566.36 494.997,1569.75C496.797,1569.6 497.949,1569.67 499.245,1569.67C501.045,1569.67 501.549,1570.68 501.621,1573.28C501.693,1574.93 501.693,1577.45 501.765,1579.9C501.837,1583.14 501.981,1588.39 502.845,1593.36L502.485,1593.51C501.261,1589.19 499.893,1585.73 496.941,1579.9C492.405,1571.69 489.093,1562.69 488.085,1559.81C485.853,1560.1 470.085,1559.95 467.493,1559.81C467.709,1562.98 467.709,1566.58 467.493,1569.82C468.357,1569.75 468.789,1569.75 469.797,1569.75C471.813,1569.75 472.533,1570.76 472.533,1573.35C472.605,1577.81 472.677,1586.6 472.533,1591.78C472.461,1594.01 471.093,1594.95 469.293,1594.95C468.789,1594.95 468.429,1594.95 467.637,1594.88C467.853,1598.26 467.853,1601.57 467.637,1605.03C470.157,1604.88 485.421,1604.81 488.157,1605.03C487.941,1602.8 487.941,1597.39 488.157,1594.8C487.149,1594.95 486.429,1594.88 485.349,1594.88C483.405,1594.88 482.613,1593.72 482.541,1591.78C482.469,1588.9 482.397,1585.52 482.397,1581.84C482.397,1579.25 481.749,1574.79 481.173,1570.76L481.461,1570.61C483.189,1574.5 485.349,1579.11 487.653,1583.36C492.477,1592.5 497.085,1602.58 497.877,1605.03C501.765,1604.81 507.885,1604.81 511.341,1605.03Z" style="fill-rule:nonzero;"/>
                <path d="M566.997,1583.43C566.997,1564.2 559.149,1559.81 541.653,1559.81C537.909,1559.81 534.813,1559.88 532.077,1559.88C528.837,1559.88 525.525,1559.88 521.709,1559.81C521.925,1562.33 521.925,1566.36 521.709,1569.96C522.357,1569.96 523.509,1569.89 524.445,1569.89C527.325,1569.89 528.765,1570.68 528.549,1573.42C528.693,1578.75 528.693,1586.95 528.549,1591.63C528.477,1593.87 527.541,1594.88 524.517,1594.88C523.149,1594.88 522.429,1594.95 521.709,1594.8C521.781,1597.83 521.781,1601.64 521.709,1605.03C524.589,1604.95 527.973,1604.95 531.573,1604.95L543.309,1604.95C560.517,1604.95 566.997,1598.84 566.997,1583.43ZM545.253,1594.8C543.957,1594.8 541.869,1594.8 540.573,1594.73C540.213,1588.25 540.213,1577.74 540.573,1570.61C541.365,1570.61 543.381,1570.54 544.749,1570.54C550.437,1570.54 554.757,1572.19 554.757,1583C554.757,1592.86 549.933,1594.8 545.253,1594.8Z" style="fill-rule:nonzero;"/>
                <path d="M671.397,1604.95C671.613,1600.92 673.053,1591.49 673.917,1588.11C670.173,1587.67 666.357,1587.1 663.045,1586.45C662.901,1587.67 662.613,1589.69 662.253,1591.2C661.605,1594.01 660.021,1595.16 657.501,1595.16C653.829,1595.16 649.797,1595.09 643.677,1595.38L643.533,1594.8C646.701,1593.08 649.869,1590.91 653.469,1588.25C660.525,1582.85 667.941,1575.36 672.549,1571.84C672.189,1570.18 672.261,1564.28 672.549,1559.81C668.445,1560.03 634.173,1560.03 631.149,1559.81C630.861,1563.63 629.205,1572.99 628.269,1576.88C631.869,1577.16 635.901,1577.88 639.573,1578.53C639.717,1577.6 639.933,1576.08 640.221,1574.57C640.725,1571.76 642.237,1570.61 644.181,1570.61C647.061,1570.61 652.605,1570.61 659.805,1570.04L659.949,1570.54C656.061,1572.77 652.821,1575.08 650.373,1577.16C641.733,1584.51 633.381,1591.2 628.629,1593.94C628.773,1596.6 628.845,1601.93 628.629,1605.03C629.493,1604.38 667.869,1604.6 671.397,1604.95Z" style="fill-rule:nonzero;"/>
                <path d="M722.085,1559.81C717.549,1559.95 690.693,1560.03 685.725,1559.81C685.941,1562.98 685.941,1566.22 685.725,1569.6C687.309,1569.53 690.405,1569.32 694.437,1569.32C697.029,1569.32 697.605,1570.68 697.677,1572.56C697.965,1577.31 697.821,1586.74 697.677,1592.07C697.605,1594.44 695.949,1595.38 693.501,1595.38C689.829,1595.38 687.021,1595.31 685.725,1595.16C685.941,1597.61 685.941,1602.51 685.725,1605.03C690.261,1604.81 716.901,1604.6 722.085,1605.03C721.869,1602.51 721.869,1597.61 722.085,1595.16C720.789,1595.31 717.909,1595.38 714.165,1595.38C711.717,1595.38 710.133,1594.44 709.989,1591.92C709.701,1586.45 709.701,1577.31 709.989,1572.56C710.061,1570.68 710.637,1569.32 713.229,1569.32C717.333,1569.32 720.429,1569.53 722.085,1569.6C721.869,1566.22 721.869,1562.98 722.085,1559.81Z" style="fill-rule:nonzero;"/>
                <path d="M777.741,1605.03C777.165,1599.48 777.309,1579.97 777.741,1572.77C777.885,1570.32 778.101,1569.67 779.973,1569.67C780.261,1569.67 780.981,1569.67 781.269,1569.75C780.981,1566.72 780.981,1562.91 781.197,1559.81C779.109,1560.1 763.989,1559.95 761.397,1559.81C761.613,1562.91 761.541,1566.36 761.397,1569.75C763.197,1569.6 764.349,1569.67 765.645,1569.67C767.445,1569.67 767.949,1570.68 768.021,1573.28C768.093,1574.93 768.093,1577.45 768.165,1579.9C768.237,1583.14 768.381,1588.39 769.245,1593.36L768.885,1593.51C767.661,1589.19 766.293,1585.73 763.341,1579.9C758.805,1571.69 755.493,1562.69 754.485,1559.81C752.253,1560.1 736.485,1559.95 733.893,1559.81C734.109,1562.98 734.109,1566.58 733.893,1569.82C734.757,1569.75 735.189,1569.75 736.197,1569.75C738.213,1569.75 738.933,1570.76 738.933,1573.35C739.005,1577.81 739.077,1586.6 738.933,1591.78C738.861,1594.01 737.493,1594.95 735.693,1594.95C735.189,1594.95 734.829,1594.95 734.037,1594.88C734.253,1598.26 734.253,1601.57 734.037,1605.03C736.557,1604.88 751.821,1604.81 754.557,1605.03C754.341,1602.8 754.341,1597.39 754.557,1594.8C753.549,1594.95 752.829,1594.88 751.749,1594.88C749.805,1594.88 749.013,1593.72 748.941,1591.78C748.869,1588.9 748.797,1585.52 748.797,1581.84C748.797,1579.25 748.149,1574.79 747.573,1570.76L747.861,1570.61C749.589,1574.5 751.749,1579.11 754.053,1583.36C758.877,1592.5 763.485,1602.58 764.277,1605.03C768.165,1604.81 774.285,1604.81 777.741,1605.03Z" style="fill-rule:nonzero;"/>
                <path d="M831.021,1605.03C830.877,1602.15 831.885,1591.78 832.245,1588.32C828.861,1588.25 824.325,1587.96 820.941,1587.39C820.797,1588.76 820.581,1590.7 820.365,1591.92C819.861,1594.44 818.637,1595.16 815.973,1595.16C814.317,1595.16 809.709,1595.02 806.757,1594.95C806.613,1592.14 806.613,1589.4 806.613,1586.74C811.221,1586.67 816.477,1586.6 817.701,1586.74C817.629,1583.79 817.629,1580.76 817.701,1577.88C816.405,1577.95 811.437,1578.03 806.829,1578.1C806.973,1575 807.117,1572.12 807.333,1569.46C809.421,1569.46 812.157,1569.39 815.829,1569.39C818.493,1569.39 819.789,1570.11 820.149,1572.56C820.365,1574.14 820.509,1575.65 820.581,1577.38C823.965,1576.88 827.997,1576.73 831.453,1576.8C831.093,1573.13 830.229,1563.34 830.013,1559.81C822.813,1559.95 816.549,1560.03 806.109,1560.03C798.837,1560.03 792.213,1559.88 786.669,1559.81C786.885,1562.33 786.885,1566.36 786.669,1569.96C787.605,1569.96 789.045,1569.89 790.845,1569.89C793.581,1569.89 794.805,1570.76 794.949,1573.42C795.237,1578.82 795.237,1587.1 794.949,1591.78C794.805,1593.94 793.797,1594.88 791.205,1594.88C790.269,1594.88 787.533,1594.95 786.669,1594.8C786.741,1597.83 786.741,1601.64 786.669,1605.03C793.293,1604.95 800.997,1604.81 809.061,1604.81C816.693,1604.67 824.829,1604.88 831.021,1605.03Z" style="fill-rule:nonzero;"/>
                <path d="M884.229,1559.81C883.005,1559.88 880.917,1559.95 878.613,1559.95C876.525,1559.95 874.365,1559.88 872.565,1559.81C872.709,1561.9 872.781,1564.71 872.853,1567.8L872.133,1567.8C869.037,1562.12 864.069,1558.8 857.373,1558.8C847.509,1558.8 842.253,1563.99 842.253,1571.48C842.253,1581.34 853.269,1584.65 861.981,1587.1C867.741,1588.76 872.565,1590.05 872.565,1593C872.565,1594.88 870.909,1596.03 866.805,1596.03C857.517,1596.03 853.485,1592.14 852.333,1587.1C849.093,1587.32 844.485,1587.32 841.317,1586.95C841.605,1590.34 841.893,1600.71 841.317,1605.03C842.973,1604.88 844.773,1604.88 846.645,1604.88C848.517,1604.88 850.605,1604.88 852.693,1605.03C852.477,1602.94 852.333,1599.63 852.333,1596.39L852.909,1596.39C855.861,1602.51 860.685,1606.04 869.613,1606.04C879.333,1606.04 885.021,1601.28 885.021,1592.79C885.021,1582.2 874.149,1579.54 865.509,1577.38C859.749,1575.94 854.997,1574.72 854.997,1571.48C854.997,1569.39 856.725,1568.38 860.829,1568.38C866.877,1568.38 872.493,1571.26 873.717,1577.24C876.885,1577.02 880.989,1577.02 883.653,1577.24C883.653,1574.5 883.581,1564.42 884.229,1559.81Z" style="fill-rule:nonzero;"/>
            </g>
        </g>
    </g>
</svg>
